<?xml version="1.0" encoding="UTF-8" standalone="no"?>
<!DOCTYPE svg PUBLIC "-//W3C//DTD SVG 1.1//EN" "http://www.w3.org/Graphics/SVG/1.1/DTD/svg11.dtd">
<svg width="100%" height="100%" viewBox="0 0 413 123" version="1.1"
	xmlns="http://www.w3.org/2000/svg"
	xmlns:xlink="http://www.w3.org/1999/xlink" xml:space="preserve"
	xmlns:serif="http://www.serif.com/" style="fill-rule:evenodd;clip-rule:evenodd;stroke-linejoin:round;stroke-miterlimit:1.41421;">
	<rect id="SvgjsG1476" x="0" y="0" width="412.5" height="122.5" style="fill:#272727;"/>
	<g id="SvgjsG1477">
		<path d="M86.455,79.96l3.104,0l15.986,-37.96l-3.104,0l-15.986,37.96Z" style="fill:#fff;fill-rule:nonzero;"/>
		<path d="M111.909,42l0,4.474l14.588,14.492l-14.588,14.501l0,4.464l19.091,-18.965l-19.091,-18.966Z" style="fill:#fff;fill-rule:nonzero;"/>
		<path d="M80.091,79.931l0,-4.464l-14.588,-14.501l14.588,-14.492l0,-4.474l-19.091,18.966l19.091,18.965Z" style="fill:#fff;fill-rule:nonzero;"/>
	</g>
	<path id="SvgjsG1478" d="M160.409,42.187l16.949,0l0,7.517l-9.408,0l0,30.118l-7.541,0l0,-30.118l-9.409,0l0,-7.517l9.409,0Zm20.218,37.634l0,-37.634l7.541,0l0,37.634l-7.541,0Zm11.276,0l0,-11.3l0,-13.167l0,-13.168l13.168,0c3.618,0 6.723,1.284 9.315,3.876c2.591,2.591 3.875,5.696 3.875,9.315c0,3.619 -1.284,6.724 -3.875,9.292c-2.592,2.568 -5.697,3.852 -9.315,3.852l-5.627,0l0,11.3l-7.541,0Zm7.541,-18.817l5.626,0.023c1.565,0 2.895,-0.56 3.993,-1.658c1.097,-1.097 1.657,-2.428 1.657,-3.992c0,-1.541 -0.56,-2.871 -1.657,-3.992c-1.098,-1.121 -2.428,-1.681 -3.993,-1.681l-5.626,0l0,11.3l0,0Zm22.086,18.817l0,-37.634l7.541,0l0,37.634l-7.541,0Zm29.347,-37.821l-0.024,0.094c2.615,0 5.066,0.49 7.378,1.494c2.311,1.004 4.342,2.358 6.093,4.062l-5.37,5.37c-2.264,-2.241 -4.949,-3.362 -8.054,-3.362c-3.152,0 -5.837,1.121 -8.055,3.362c-2.217,2.241 -3.338,4.926 -3.338,8.054c0,3.152 1.12,5.837 3.338,8.055c2.218,2.218 4.903,3.338 8.055,3.338c3.151,0 5.836,-1.12 8.078,-3.362l5.369,5.37c-1.75,1.728 -3.782,3.082 -6.093,4.086c-2.311,1.004 -4.763,1.494 -7.377,1.494c-5.23,0 -9.713,-1.868 -13.425,-5.58c-3.712,-3.712 -5.579,-8.194 -5.579,-13.424c0,-5.23 1.867,-9.712 5.579,-13.448c3.713,-3.735 8.195,-5.603 13.425,-5.603l0,0Zm16.249,0.187l7.541,0l0,14.288l8.288,-14.288l8.708,0l-11.113,19.121l12.911,18.513l-9.175,0l-9.619,-13.821l0,13.821l-7.541,0l0,-37.634l0,0Zm29.136,0l7.541,0l0,30.094l15.036,0l0,7.541l-22.577,0l0,-37.634l0,-0.001Zm24.444,0l8.545,0l6.49,11.93l6.491,-11.93l8.568,0l-11.3,20.755l0,16.879l-7.517,0l0,-16.879l-11.277,-20.755Z" style="fill:#fff;fill-rule:nonzero;"/>
</svg>
